<?xml version="1.0" standalone="no"?>
<!DOCTYPE svg PUBLIC "-//W3C//DTD SVG 20010904//EN"
 "http://www.w3.org/TR/2001/REC-SVG-20010904/DTD/svg10.dtd">
<svg version="1.0" xmlns="http://www.w3.org/2000/svg"
 width="700.000000pt" height="700.000000pt" viewBox="0 0 700.000000 700.000000"
 preserveAspectRatio="xMidYMid meet">
<metadata>
Created by potrace 1.14, written by Peter Selinger 2001-2017
</metadata>
<g transform="translate(0.000000,700.000000) scale(0.100000,-0.100000)"
fill="#000000" stroke="none">
<path d="M1735 6267 l-1730 -672 0 -120 0 -119 1029 -282 c565 -156 1031 -286
1034 -289 4 -3 -13 -242 -37 -531 -24 -289 -41 -527 -39 -529 2 -2 67 9 143
25 132 27 262 48 520 85 163 24 467 44 760 51 539 14 1159 -48 1629 -161 l58
-14 -6 52 c-16 139 -88 1038 -84 1042 3 3 286 82 629 176 343 94 625 172 627
174 6 6 2 545 -4 633 l-7 83 -36 15 c-43 18 -139 49 -199 64 -23 6 -40 14 -38
19 6 10 -2471 972 -2499 971 -11 -1 -798 -304 -1750 -673z"/>
<path d="M6458 5503 c2 -158 6 -290 8 -292 2 -2 115 27 251 64 136 37 256 70
266 73 15 4 17 18 17 121 l0 116 -255 98 c-140 54 -263 101 -273 104 -19 4
-19 -4 -14 -284z"/>
<path d="M4930 3074 c-376 -27 -667 -93 -950 -214 l-141 -61 -297 -3 -297 -2
-70 36 c-198 104 -529 190 -845 221 -177 18 -626 23 -760 9 -406 -41 -607 -73
-635 -101 -19 -19 -20 -32 -19 -267 2 -275 6 -301 68 -376 50 -62 83 -133 148
-326 121 -360 215 -500 392 -585 144 -68 281 -99 531 -116 238 -17 350 -7 535
47 172 51 352 193 472 374 72 110 117 200 183 371 65 166 85 207 127 254 63
72 163 101 243 71 55 -21 117 -90 141 -154 148 -406 350 -705 558 -831 207
-124 542 -170 880 -120 225 33 452 149 553 281 59 77 85 135 136 303 53 173
103 299 154 382 88 142 83 126 95 316 13 216 2 362 -30 387 -23 19 -205 51
-462 81 -168 19 -577 32 -710 23z m-2598 -229 c234 -10 461 -63 585 -137 74
-44 145 -115 174 -175 21 -42 24 -61 23 -163 -1 -238 -83 -481 -224 -668 -93
-123 -203 -202 -374 -266 -214 -81 -768 -48 -928 55 -130 84 -232 255 -290
487 -18 72 -22 116 -22 262 -1 245 24 340 114 430 58 58 105 84 221 124 183
62 288 69 721 51z m2896 -6 c191 -21 337 -62 411 -117 178 -132 211 -643 61
-949 -73 -149 -175 -237 -360 -310 -153 -61 -246 -77 -425 -77 -505 1 -803
244 -934 762 -47 185 -46 290 5 398 69 147 325 258 674 293 125 12 456 13 568
0z"/>
<path d="M2459 2707 c-183 -52 -270 -219 -213 -415 22 -75 97 -151 174 -178
119 -40 234 -17 325 67 73 68 89 107 90 219 0 87 -3 100 -30 149 -70 126 -218
194 -346 158z m246 -92 c14 -13 25 -31 25 -39 0 -28 -22 -64 -47 -75 -34 -16
-47 -14 -77 10 -19 15 -26 30 -26 55 0 69 76 99 125 49z"/>
<path d="M4431 2705 c-69 -20 -112 -46 -156 -97 -135 -159 -79 -405 114 -491
59 -26 157 -28 228 -4 70 24 144 92 174 159 33 73 33 193 2 258 -36 72 -79
117 -146 149 -77 38 -144 46 -216 26z m237 -82 c38 -32 30 -102 -13 -121 -37
-17 -50 -15 -81 11 -53 46 -23 127 46 127 15 0 37 -8 48 -17z"/>
<path d="M3043 1313 c-7 -2 -13 -18 -13 -35 0 -26 15 -46 83 -113 137 -135
290 -195 497 -195 96 0 173 20 275 69 132 65 279 216 254 262 -18 35 -48 21
-132 -64 -137 -139 -270 -192 -463 -185 -98 3 -105 5 -200 52 -84 41 -112 62
-181 132 -79 80 -92 89 -120 77z"/>
</g>
</svg>
